<?xml version="1.0" standalone="no"?>
<!DOCTYPE svg PUBLIC "-//W3C//DTD SVG 20010904//EN"
 "http://www.w3.org/TR/2001/REC-SVG-20010904/DTD/svg10.dtd">
<svg version="1.0" xmlns="http://www.w3.org/2000/svg"
 width="114.000000pt" height="68.000000pt" viewBox="0 0 114.000000 68.000000"
 preserveAspectRatio="xMidYMid meet">

<g transform="translate(0.000000,68.000000) scale(0.100000,-0.100000)"
fill="#000000" stroke="none">
<path d="M0 340 l0 -340 570 0 570 0 0 340 0 340 -570 0 -570 0 0 -340z m410
228 c0 -7 -30 -107 -67 -221 l-67 -208 -65 3 -65 3 -57 175 -57 175 60 3 c34
2 64 -1 68 -5 4 -4 15 -36 25 -71 10 -35 21 -65 25 -67 4 -2 19 36 33 84 45
151 38 141 107 141 41 0 60 -4 60 -12z m320 -48 l0 -60 -40 0 -40 0 0 -160 0
-160 -65 0 -65 0 0 160 0 160 -55 0 c-30 0 -55 4 -55 8 0 5 7 32 15 60 l16 52
144 0 145 0 0 -60z m320 0 l0 -60 -40 0 -40 0 0 -160 0 -160 -65 0 -65 0 0
160 0 160 -45 0 -45 0 0 60 0 60 150 0 150 0 0 -60z"/>
</g>
</svg>
